# xmcd CD database file
#
# Track frame offsets:
#	150
#	36576
#	73222
#
# Disc length: 4289 seconds
#
# Revision: 0
# Processed by: cddbd v1.5.1PL0 Copyright (c) Steve Scherf et al.
# Submitted via: CDex 1.51
#
DISCID=2b10bf03
DTITLE=SRV, Albert Collins, and Jeff Healey - Jammin' With The Boys
DYEAR=1985
DGENRE=Blues
TTITLE0=Cleo's Thing
TTITLE1=Hideaway
TTITLE2=JAM
EXTD=YEAR: 1985
EXTT0=
EXTT1=
EXTT2=
PLAYORDER=
